<svg xmlns="http://www.w3.org/2000/svg" xmlns:xlink="http://www.w3.org/1999/xlink" contentStyleType="text/css" height="1314px" preserveAspectRatio="none" style="width:410px;height:1314px;background:#FFFFFF;" version="1.1" viewBox="0 0 410 1314" width="410px" zoomAndPan="magnify"><defs/><g><!--entity 1023--><g id="elem_1023"><ellipse cx="355.47" cy="14" fill="#F1F1F1" rx="8" ry="8" style="stroke:#181818;stroke-width:0.5;"/><text fill="#000000" font-family="sans-serif" font-size="14" lengthAdjust="spacing" textLength="32.0319" x="339.4541" y="45.9659">1023</text></g><!--entity 511--><g id="elem_511"><ellipse cx="318.47" cy="157" fill="#F1F1F1" rx="8" ry="8" style="stroke:#181818;stroke-width:0.5;"/><text fill="#000000" font-family="sans-serif" font-size="14" lengthAdjust="spacing" textLength="24.0239" x="306.4581" y="188.9659">511</text></g><!--entity 255--><g id="elem_255"><ellipse cx="281.47" cy="300" fill="#F1F1F1" rx="8" ry="8" style="stroke:#181818;stroke-width:0.5;"/><text fill="#000000" font-family="sans-serif" font-size="14" lengthAdjust="spacing" textLength="24.0239" x="269.4581" y="331.9659">255</text></g><!--entity 127--><g id="elem_127"><ellipse cx="243.47" cy="443" fill="#F1F1F1" rx="8" ry="8" style="stroke:#181818;stroke-width:0.5;"/><text fill="#000000" font-family="sans-serif" font-size="14" lengthAdjust="spacing" textLength="24.0239" x="231.4581" y="474.9659">127</text></g><!--entity 63--><g id="elem_63"><ellipse cx="205.47" cy="586" fill="#F1F1F1" rx="8" ry="8" style="stroke:#181818;stroke-width:0.5;"/><text fill="#000000" font-family="sans-serif" font-size="14" lengthAdjust="spacing" textLength="16.0159" x="197.462" y="617.9659">63</text></g><!--entity 31--><g id="elem_31"><ellipse cx="167.47" cy="729" fill="#F1F1F1" rx="8" ry="8" style="stroke:#181818;stroke-width:0.5;"/><text fill="#000000" font-family="sans-serif" font-size="14" lengthAdjust="spacing" textLength="16.0159" x="159.462" y="760.9659">31</text></g><!--entity 15--><g id="elem_15"><ellipse cx="129.47" cy="872" fill="#F1F1F1" rx="8" ry="8" style="stroke:#181818;stroke-width:0.5;"/><text fill="#000000" font-family="sans-serif" font-size="14" lengthAdjust="spacing" textLength="16.0159" x="121.462" y="903.9659">15</text></g><!--entity 7--><g id="elem_7"><ellipse cx="91.47" cy="1015" fill="#F1F1F1" rx="8" ry="8" style="stroke:#181818;stroke-width:0.5;"/><text fill="#000000" font-family="sans-serif" font-size="14" lengthAdjust="spacing" textLength="8.008" x="87.466" y="1046.9659">7</text></g><!--entity 3--><g id="elem_3"><ellipse cx="53.47" cy="1158" fill="#F1F1F1" rx="8" ry="8" style="stroke:#181818;stroke-width:0.5;"/><text fill="#000000" font-family="sans-serif" font-size="14" lengthAdjust="spacing" textLength="8.008" x="49.466" y="1189.9659">3</text></g><!--entity A--><g id="elem_A"><rect fill="#F1F1F1" height="39.0679" rx="2.5" ry="2.5" style="stroke:#181818;stroke-width:0.5;" width="28.946" x="7" y="1269"/><text fill="#000000" font-family="sans-serif" font-size="14" lengthAdjust="spacing" textLength="8.946" x="17" y="1293.9659">A</text></g><!--entity B--><g id="elem_B"><rect fill="#F1F1F1" height="39.0679" rx="2.5" ry="2.5" style="stroke:#181818;stroke-width:0.5;" width="29.1" x="70.92" y="1269"/><text fill="#000000" font-family="sans-serif" font-size="14" lengthAdjust="spacing" textLength="9.1" x="80.92" y="1293.9659">B</text></g><!--entity C--><g id="elem_C"><rect fill="#F1F1F1" height="39.0679" rx="2.5" ry="2.5" style="stroke:#181818;stroke-width:0.5;" width="28.848" x="115.05" y="1138.47"/><text fill="#000000" font-family="sans-serif" font-size="14" lengthAdjust="spacing" textLength="8.848" x="125.05" y="1163.4359">C</text></g><!--entity D--><g id="elem_D"><rect fill="#F1F1F1" height="39.0679" rx="2.5" ry="2.5" style="stroke:#181818;stroke-width:0.5;" width="30.22" x="153.36" y="995.47"/><text fill="#000000" font-family="sans-serif" font-size="14" lengthAdjust="spacing" textLength="10.22" x="163.36" y="1020.4359">D</text></g><!--entity E--><g id="elem_E"><rect fill="#F1F1F1" height="39.0679" rx="2.5" ry="2.5" style="stroke:#181818;stroke-width:0.5;" width="27.784" x="191.58" y="852.47"/><text fill="#000000" font-family="sans-serif" font-size="14" lengthAdjust="spacing" textLength="7.784" x="201.58" y="877.4359">E</text></g><!--entity F--><g id="elem_F"><rect fill="#F1F1F1" height="39.0679" rx="2.5" ry="2.5" style="stroke:#181818;stroke-width:0.5;" width="27.266" x="229.84" y="709.47"/><text fill="#000000" font-family="sans-serif" font-size="14" lengthAdjust="spacing" textLength="7.266" x="239.84" y="734.4359">F</text></g><!--entity G--><g id="elem_G"><rect fill="#F1F1F1" height="39.0679" rx="2.5" ry="2.5" style="stroke:#181818;stroke-width:0.5;" width="30.192" x="267.38" y="566.47"/><text fill="#000000" font-family="sans-serif" font-size="14" lengthAdjust="spacing" textLength="10.192" x="277.38" y="591.4359">G</text></g><!--entity H--><g id="elem_H"><rect fill="#F1F1F1" height="39.0679" rx="2.5" ry="2.5" style="stroke:#181818;stroke-width:0.5;" width="30.374" x="305.29" y="423.47"/><text fill="#000000" font-family="sans-serif" font-size="14" lengthAdjust="spacing" textLength="10.374" x="315.29" y="448.4359">H</text></g><!--entity I--><g id="elem_I"><rect fill="#F1F1F1" height="39.0679" rx="2.5" ry="2.5" style="stroke:#181818;stroke-width:0.5;" width="24.746" x="343.1" y="280.47"/><text fill="#000000" font-family="sans-serif" font-size="14" lengthAdjust="spacing" textLength="4.746" x="353.1" y="305.4359">I</text></g><!--entity J--><g id="elem_J"><rect fill="#F1F1F1" height="39.0679" rx="2.5" ry="2.5" style="stroke:#181818;stroke-width:0.5;" width="23.822" x="380.56" y="137.47"/><text fill="#000000" font-family="sans-serif" font-size="14" lengthAdjust="spacing" textLength="3.822" x="390.56" y="162.4359">J</text></g><!--link 1023 to 511--><g id="link_1023_511"><path d="M353.38,22.99 C346.87,47.8 327.03,123.41 320.55,148.1 " fill="none" id="1023-511" style="stroke:#181818;stroke-width:1;"/><text fill="#000000" font-family="sans-serif" font-size="13" lengthAdjust="spacing" textLength="7.436" x="340.19" y="90.897">0</text></g><!--link 1023 to J--><g id="link_1023_J"><path d="M357.57,22.99 C363.29,44.78 379.27,105.71 387.48,136.97 " fill="none" id="1023-J" style="stroke:#181818;stroke-width:1;"/><text fill="#000000" font-family="sans-serif" font-size="13" lengthAdjust="spacing" textLength="7.436" x="377.19" y="90.897">1</text></g><!--link 511 to 255--><g id="link_511_255"><path d="M316.38,165.99 C309.87,190.8 290.03,266.41 283.55,291.1 " fill="none" id="511-255" style="stroke:#181818;stroke-width:1;"/><text fill="#000000" font-family="sans-serif" font-size="13" lengthAdjust="spacing" textLength="7.436" x="303.19" y="233.897">0</text></g><!--link 511 to I--><g id="link_511_I"><path d="M320.57,165.99 C326.29,187.78 342.27,248.71 350.48,279.97 " fill="none" id="511-I" style="stroke:#181818;stroke-width:1;"/><text fill="#000000" font-family="sans-serif" font-size="13" lengthAdjust="spacing" textLength="7.436" x="340.19" y="233.897">1</text></g><!--link 255 to 127--><g id="link_255_127"><path d="M279.32,308.99 C272.63,333.8 252.26,409.41 245.6,434.1 " fill="none" id="255-127" style="stroke:#181818;stroke-width:1;"/><text fill="#000000" font-family="sans-serif" font-size="13" lengthAdjust="spacing" textLength="7.436" x="265.75" y="376.897">0</text></g><!--link 255 to H--><g id="link_255_H"><path d="M283.68,308.99 C289.71,330.78 306.56,391.71 315.21,422.97 " fill="none" id="255-H" style="stroke:#181818;stroke-width:1;"/><text fill="#000000" font-family="sans-serif" font-size="13" lengthAdjust="spacing" textLength="7.436" x="304.31" y="376.897">1</text></g><!--link 127 to 63--><g id="link_127_63"><path d="M241.32,451.99 C234.63,476.8 214.26,552.41 207.6,577.1 " fill="none" id="127-63" style="stroke:#181818;stroke-width:1;"/><text fill="#000000" font-family="sans-serif" font-size="13" lengthAdjust="spacing" textLength="7.436" x="227.75" y="519.897">0</text></g><!--link 127 to G--><g id="link_127_G"><path d="M245.68,451.99 C251.71,473.78 268.56,534.71 277.21,565.97 " fill="none" id="127-G" style="stroke:#181818;stroke-width:1;"/><text fill="#000000" font-family="sans-serif" font-size="13" lengthAdjust="spacing" textLength="7.436" x="266.31" y="519.897">1</text></g><!--link 63 to 31--><g id="link_63_31"><path d="M203.32,594.99 C196.63,619.8 176.26,695.41 169.6,720.1 " fill="none" id="63-31" style="stroke:#181818;stroke-width:1;"/><text fill="#000000" font-family="sans-serif" font-size="13" lengthAdjust="spacing" textLength="7.436" x="189.75" y="662.897">0</text></g><!--link 63 to F--><g id="link_63_F"><path d="M207.62,594.99 C213.5,616.78 229.92,677.71 238.34,708.97 " fill="none" id="63-F" style="stroke:#181818;stroke-width:1;"/><text fill="#000000" font-family="sans-serif" font-size="13" lengthAdjust="spacing" textLength="7.436" x="227.75" y="662.897">1</text></g><!--link 31 to 15--><g id="link_31_15"><path d="M165.32,737.99 C158.63,762.8 138.26,838.41 131.6,863.1 " fill="none" id="31-15" style="stroke:#181818;stroke-width:1;"/><text fill="#000000" font-family="sans-serif" font-size="13" lengthAdjust="spacing" textLength="7.436" x="151.75" y="805.897">0</text></g><!--link 31 to E--><g id="link_31_E"><path d="M169.62,737.99 C175.5,759.78 191.92,820.71 200.34,851.97 " fill="none" id="31-E" style="stroke:#181818;stroke-width:1;"/><text fill="#000000" font-family="sans-serif" font-size="13" lengthAdjust="spacing" textLength="7.436" x="189.75" y="805.897">1</text></g><!--link 15 to 7--><g id="link_15_7"><path d="M127.32,880.99 C120.63,905.8 100.26,981.41 93.6,1006.1 " fill="none" id="15-7" style="stroke:#181818;stroke-width:1;"/><text fill="#000000" font-family="sans-serif" font-size="13" lengthAdjust="spacing" textLength="7.436" x="113.75" y="948.897">0</text></g><!--link 15 to D--><g id="link_15_D"><path d="M131.68,880.99 C137.71,902.78 154.56,963.71 163.21,994.97 " fill="none" id="15-D" style="stroke:#181818;stroke-width:1;"/><text fill="#000000" font-family="sans-serif" font-size="13" lengthAdjust="spacing" textLength="7.436" x="152.31" y="948.897">1</text></g><!--link 7 to 3--><g id="link_7_3"><path d="M89.32,1023.99 C82.63,1048.8 62.26,1124.41 55.6,1149.1 " fill="none" id="7-3" style="stroke:#181818;stroke-width:1;"/><text fill="#000000" font-family="sans-serif" font-size="13" lengthAdjust="spacing" textLength="7.436" x="75.75" y="1091.897">0</text></g><!--link 7 to C--><g id="link_7_C"><path d="M93.62,1023.99 C99.5,1045.78 115.92,1106.71 124.34,1137.97 " fill="none" id="7-C" style="stroke:#181818;stroke-width:1;"/><text fill="#000000" font-family="sans-serif" font-size="13" lengthAdjust="spacing" textLength="7.436" x="113.75" y="1091.897">1</text></g><!--link 3 to A--><g id="link_3_A"><path d="M50.52,1166.79 C46.27,1178.29 38.36,1200.55 33.47,1220 C29.38,1236.29 26.15,1255.12 24.08,1268.75 " fill="none" id="3-A" style="stroke:#181818;stroke-width:1;"/><text fill="#000000" font-family="sans-serif" font-size="13" lengthAdjust="spacing" textLength="7.436" x="34.47" y="1234.897">0</text></g><!--link 3 to B--><g id="link_3_B"><path d="M55.38,1166.66 C60.33,1186.55 73.71,1240.29 80.85,1268.95 " fill="none" id="3-B" style="stroke:#181818;stroke-width:1;"/><text fill="#000000" font-family="sans-serif" font-size="13" lengthAdjust="spacing" textLength="7.436" x="74.28" y="1234.897">1</text></g><!--SRC=[JOzB2iCm34JtEeKl48XYd49s-NzkKKmeXT95wFsfD4uSxTxCI2CKtqVyx8xBobDC79Wlh4AuaAl7XNKUzNcIys0UyqJ77d_Fxqj4QxWpt1iU38-69yEpuSNmQdWZqdzSKJXzfd7bhRV6CP6ugkGz3K-r8X9FXRohqQaMHEAfg3qQavYHr2ZtE9LuWkzHpBYIU4nDQCM5X8FQA4Gvg5SFPItsbJhn_W00]--></g></svg>