<svg xmlns="http://www.w3.org/2000/svg" xmlns:xlink="http://www.w3.org/1999/xlink" contentStyleType="text/css" height="742px" preserveAspectRatio="none" style="width:490px;height:742px;background:#FFFFFF;" version="1.1" viewBox="0 0 490 742" width="490px" zoomAndPan="magnify"><defs/><g><!--entity 55--><g id="elem_55"><ellipse cx="273.47" cy="14" fill="#F1F1F1" rx="8" ry="8" style="stroke:#181818;stroke-width:0.5;"/><text fill="#000000" font-family="sans-serif" font-size="14" lengthAdjust="spacing" textLength="16.0159" x="265.462" y="45.9659">55</text></g><!--entity 22--><g id="elem_22"><ellipse cx="229.47" cy="157" fill="#F1F1F1" rx="8" ry="8" style="stroke:#181818;stroke-width:0.5;"/><text fill="#000000" font-family="sans-serif" font-size="14" lengthAdjust="spacing" textLength="16.0159" x="221.462" y="188.9659">22</text></g><!--entity 33--><g id="elem_33"><ellipse cx="318.47" cy="157" fill="#F1F1F1" rx="8" ry="8" style="stroke:#181818;stroke-width:0.5;"/><text fill="#000000" font-family="sans-serif" font-size="14" lengthAdjust="spacing" textLength="16.0159" x="310.462" y="188.9659">33</text></g><!--entity 12--><g id="elem_12"><ellipse cx="157.47" cy="300" fill="#F1F1F1" rx="8" ry="8" style="stroke:#181818;stroke-width:0.5;"/><text fill="#000000" font-family="sans-serif" font-size="14" lengthAdjust="spacing" textLength="16.0159" x="149.462" y="331.9659">12</text></g><!--entity 15--><g id="elem_15"><ellipse cx="312.47" cy="300" fill="#F1F1F1" rx="8" ry="8" style="stroke:#181818;stroke-width:0.5;"/><text fill="#000000" font-family="sans-serif" font-size="14" lengthAdjust="spacing" textLength="16.0159" x="304.462" y="331.9659">15</text></g><!--entity 18--><g id="elem_18"><ellipse cx="401.47" cy="300" fill="#F1F1F1" rx="8" ry="8" style="stroke:#181818;stroke-width:0.5;"/><text fill="#000000" font-family="sans-serif" font-size="14" lengthAdjust="spacing" textLength="16.0159" x="393.462" y="331.9659">18</text></g><!--entity 6--><g id="elem_6"><ellipse cx="97.47" cy="443" fill="#F1F1F1" rx="8" ry="8" style="stroke:#181818;stroke-width:0.5;"/><text fill="#000000" font-family="sans-serif" font-size="14" lengthAdjust="spacing" textLength="8.008" x="93.466" y="474.9659">6</text></g><!--entity 9--><g id="elem_9"><ellipse cx="398.47" cy="443" fill="#F1F1F1" rx="8" ry="8" style="stroke:#181818;stroke-width:0.5;"/><text fill="#000000" font-family="sans-serif" font-size="14" lengthAdjust="spacing" textLength="8.008" x="394.466" y="474.9659">9</text></g><!--entity 3--><g id="elem_3"><ellipse cx="53.47" cy="586" fill="#F1F1F1" rx="8" ry="8" style="stroke:#181818;stroke-width:0.5;"/><text fill="#000000" font-family="sans-serif" font-size="14" lengthAdjust="spacing" textLength="8.008" x="49.466" y="617.9659">3</text></g><!--entity A--><g id="elem_A"><rect fill="#F1F1F1" height="39.0679" rx="2.5" ry="2.5" style="stroke:#181818;stroke-width:0.5;" width="28.946" x="7" y="697"/><text fill="#000000" font-family="sans-serif" font-size="14" lengthAdjust="spacing" textLength="8.946" x="17" y="721.9659">A</text></g><!--entity B--><g id="elem_B"><rect fill="#F1F1F1" height="39.0679" rx="2.5" ry="2.5" style="stroke:#181818;stroke-width:0.5;" width="29.1" x="70.92" y="697"/><text fill="#000000" font-family="sans-serif" font-size="14" lengthAdjust="spacing" textLength="9.1" x="80.92" y="721.9659">B</text></g><!--entity C--><g id="elem_C"><rect fill="#F1F1F1" height="39.0679" rx="2.5" ry="2.5" style="stroke:#181818;stroke-width:0.5;" width="28.848" x="115.05" y="566.47"/><text fill="#000000" font-family="sans-serif" font-size="14" lengthAdjust="spacing" textLength="8.848" x="125.05" y="591.4359">C</text></g><!--entity D--><g id="elem_D"><rect fill="#F1F1F1" height="39.0679" rx="2.5" ry="2.5" style="stroke:#181818;stroke-width:0.5;" width="30.22" x="351.36" y="566.47"/><text fill="#000000" font-family="sans-serif" font-size="14" lengthAdjust="spacing" textLength="10.22" x="361.36" y="591.4359">D</text></g><!--entity E--><g id="elem_E"><rect fill="#F1F1F1" height="39.0679" rx="2.5" ry="2.5" style="stroke:#181818;stroke-width:0.5;" width="27.784" x="416.58" y="566.47"/><text fill="#000000" font-family="sans-serif" font-size="14" lengthAdjust="spacing" textLength="7.784" x="426.58" y="591.4359">E</text></g><!--entity F--><g id="elem_F"><rect fill="#F1F1F1" height="39.0679" rx="2.5" ry="2.5" style="stroke:#181818;stroke-width:0.5;" width="27.266" x="159.84" y="423.47"/><text fill="#000000" font-family="sans-serif" font-size="14" lengthAdjust="spacing" textLength="7.266" x="169.84" y="448.4359">F</text></g><!--entity G--><g id="elem_G"><rect fill="#F1F1F1" height="39.0679" rx="2.5" ry="2.5" style="stroke:#181818;stroke-width:0.5;" width="30.192" x="235.38" y="423.47"/><text fill="#000000" font-family="sans-serif" font-size="14" lengthAdjust="spacing" textLength="10.192" x="245.38" y="448.4359">G</text></g><!--entity H--><g id="elem_H"><rect fill="#F1F1F1" height="39.0679" rx="2.5" ry="2.5" style="stroke:#181818;stroke-width:0.5;" width="30.374" x="300.29" y="423.47"/><text fill="#000000" font-family="sans-serif" font-size="14" lengthAdjust="spacing" textLength="10.374" x="310.29" y="448.4359">H</text></g><!--entity I--><g id="elem_I"><rect fill="#F1F1F1" height="39.0679" rx="2.5" ry="2.5" style="stroke:#181818;stroke-width:0.5;" width="24.746" x="460.1" y="423.47"/><text fill="#000000" font-family="sans-serif" font-size="14" lengthAdjust="spacing" textLength="4.746" x="470.1" y="448.4359">I</text></g><!--entity J--><g id="elem_J"><rect fill="#F1F1F1" height="39.0679" rx="2.5" ry="2.5" style="stroke:#181818;stroke-width:0.5;" width="23.822" x="219.56" y="280.47"/><text fill="#000000" font-family="sans-serif" font-size="14" lengthAdjust="spacing" textLength="3.822" x="229.56" y="305.4359">J</text></g><!--link 55 to 22--><g id="link_55_22"><path d="M270.98,22.99 C263.24,47.8 239.64,123.41 231.94,148.1 " fill="none" id="55-22" style="stroke:#181818;stroke-width:1;"/><text fill="#000000" font-family="sans-serif" font-size="13" lengthAdjust="spacing" textLength="7.436" x="255.11" y="90.897">0</text></g><!--link 55 to 33--><g id="link_55_33"><path d="M276.02,22.99 C283.94,47.8 308.07,123.41 315.95,148.1 " fill="none" id="55-33" style="stroke:#181818;stroke-width:1;"/><text fill="#000000" font-family="sans-serif" font-size="13" lengthAdjust="spacing" textLength="7.436" x="299.67" y="90.897">1</text></g><!--link 22 to J--><g id="link_22_J"><path d="M229.59,165.99 C229.9,187.78 230.76,248.71 231.2,279.97 " fill="none" id="22-J" style="stroke:#181818;stroke-width:1;"/><text fill="#000000" font-family="sans-serif" font-size="13" lengthAdjust="spacing" textLength="7.436" x="231.59" y="233.897">0</text></g><!--link 22 to 12--><g id="link_22_12"><path d="M225.4,165.99 C212.72,190.8 174.12,266.41 161.51,291.1 " fill="none" id="22-12" style="stroke:#181818;stroke-width:1;"/><text fill="#000000" font-family="sans-serif" font-size="13" lengthAdjust="spacing" textLength="7.436" x="198.78" y="233.897">1</text></g><!--link 33 to 15--><g id="link_33_15"><path d="M318.13,165.99 C317.08,190.8 313.86,266.41 312.81,291.1 " fill="none" id="33-15" style="stroke:#181818;stroke-width:1;"/><text fill="#000000" font-family="sans-serif" font-size="13" lengthAdjust="spacing" textLength="7.436" x="316.83" y="233.897">0</text></g><!--link 33 to 18--><g id="link_33_18"><path d="M323.17,165.99 C337.78,190.8 382.29,266.41 396.82,291.1 " fill="none" id="33-18" style="stroke:#181818;stroke-width:1;"/><text fill="#000000" font-family="sans-serif" font-size="13" lengthAdjust="spacing" textLength="7.436" x="365.94" y="233.897">1</text></g><!--link 12 to 6--><g id="link_12_6"><path d="M154.08,308.99 C143.51,333.8 111.34,409.41 100.83,434.1 " fill="none" id="12-6" style="stroke:#181818;stroke-width:1;"/><text fill="#000000" font-family="sans-serif" font-size="13" lengthAdjust="spacing" textLength="7.436" x="132.07" y="376.897">0</text></g><!--link 12 to F--><g id="link_12_F"><path d="M158.38,308.99 C160.85,330.78 167.77,391.71 171.31,422.97 " fill="none" id="12-F" style="stroke:#181818;stroke-width:1;"/><text fill="#000000" font-family="sans-serif" font-size="13" lengthAdjust="spacing" textLength="7.436" x="167.43" y="376.897">1</text></g><!--link 15 to G--><g id="link_15_G"><path d="M308.96,308.99 C299.38,330.78 272.59,391.71 258.84,422.97 " fill="none" id="15-G" style="stroke:#181818;stroke-width:1;"/><text fill="#000000" font-family="sans-serif" font-size="13" lengthAdjust="spacing" textLength="7.436" x="286.19" y="376.897">0</text></g><!--link 15 to H--><g id="link_15_H"><path d="M312.64,308.99 C313.11,330.78 314.4,391.71 315.07,422.97 " fill="none" id="15-H" style="stroke:#181818;stroke-width:1;"/><text fill="#000000" font-family="sans-serif" font-size="13" lengthAdjust="spacing" textLength="7.436" x="315.15" y="376.897">1</text></g><!--link 18 to 9--><g id="link_18_9"><path d="M401.3,308.99 C400.78,333.8 399.17,409.41 398.64,434.1 " fill="none" id="18-9" style="stroke:#181818;stroke-width:1;"/><text fill="#000000" font-family="sans-serif" font-size="13" lengthAdjust="spacing" textLength="7.436" x="401.15" y="376.897">0</text></g><!--link 18 to I--><g id="link_18_I"><path d="M405.49,308.99 C416.47,330.78 447.15,391.71 462.89,422.97 " fill="none" id="18-I" style="stroke:#181818;stroke-width:1;"/><text fill="#000000" font-family="sans-serif" font-size="13" lengthAdjust="spacing" textLength="7.436" x="442.22" y="376.897">1</text></g><!--link 6 to 3--><g id="link_6_3"><path d="M94.98,451.99 C87.24,476.8 63.64,552.41 55.94,577.1 " fill="none" id="6-3" style="stroke:#181818;stroke-width:1;"/><text fill="#000000" font-family="sans-serif" font-size="13" lengthAdjust="spacing" textLength="7.436" x="79.11" y="519.897">0</text></g><!--link 6 to C--><g id="link_6_C"><path d="M99.29,451.99 C104.23,473.78 118.06,534.71 125.15,565.97 " fill="none" id="6-C" style="stroke:#181818;stroke-width:1;"/><text fill="#000000" font-family="sans-serif" font-size="13" lengthAdjust="spacing" textLength="7.436" x="116.39" y="519.897">1</text></g><!--link 9 to D--><g id="link_9_D"><path d="M395.46,451.78 C391.11,463.25 383.1,485.48 378.47,505 C373.58,525.64 370.28,549.76 368.4,566.08 " fill="none" id="9-D" style="stroke:#181818;stroke-width:1;"/><text fill="#000000" font-family="sans-serif" font-size="13" lengthAdjust="spacing" textLength="7.436" x="379.47" y="519.897">0</text></g><!--link 9 to E--><g id="link_9_E"><path d="M400.29,451.99 C405.23,473.78 419.06,534.71 426.15,565.97 " fill="none" id="9-E" style="stroke:#181818;stroke-width:1;"/><text fill="#000000" font-family="sans-serif" font-size="13" lengthAdjust="spacing" textLength="7.436" x="417.39" y="519.897">1</text></g><!--link 3 to A--><g id="link_3_A"><path d="M50.52,594.79 C46.27,606.29 38.36,628.55 33.47,648 C29.38,664.29 26.15,683.12 24.08,696.75 " fill="none" id="3-A" style="stroke:#181818;stroke-width:1;"/><text fill="#000000" font-family="sans-serif" font-size="13" lengthAdjust="spacing" textLength="7.436" x="34.47" y="662.897">0</text></g><!--link 3 to B--><g id="link_3_B"><path d="M55.38,594.66 C60.33,614.55 73.71,668.29 80.85,696.95 " fill="none" id="3-B" style="stroke:#181818;stroke-width:1;"/><text fill="#000000" font-family="sans-serif" font-size="13" lengthAdjust="spacing" textLength="7.436" x="74.28" y="662.897">1</text></g><!--SRC=[JSzD2eCm48RX_PmY5n0w2H5rf_N_5YL8APGkfFUdVf-DpEwPTwBHzDhJUtCnIZhbVLO8MNerlSvfbLLcrDUJ8lkMle_FynXQuyxuRjmR3yQZyMGy6o_6gqYChYZSyHkDk-KXXCQfYFUOLYnEgcSFWKF4uk-A2-Mf4ltaYAnywSHApgmLMBEI2se91KJgZbP3FHereF7MbXy0TKVx0G00]--></g></svg>