<svg xmlns="http://www.w3.org/2000/svg" xmlns:xlink="http://www.w3.org/1999/xlink" contentStyleType="text/css" height="599px" preserveAspectRatio="none" style="width:225px;height:599px;background:#FFFFFF;" version="1.1" viewBox="0 0 225 599" width="225px" zoomAndPan="magnify"><defs/><g><!--entity 32--><g id="elem_32"><ellipse cx="167.47" cy="14" fill="#F1F1F1" rx="8" ry="8" style="stroke:#181818;stroke-width:0.5;"/><text fill="#000000" font-family="sans-serif" font-size="14" lengthAdjust="spacing" textLength="16.0159" x="159.462" y="45.9659">32</text></g><!--entity 15--><g id="elem_15"><ellipse cx="129.47" cy="157" fill="#F1F1F1" rx="8" ry="8" style="stroke:#181818;stroke-width:0.5;"/><text fill="#000000" font-family="sans-serif" font-size="14" lengthAdjust="spacing" textLength="16.0159" x="121.462" y="188.9659">15</text></g><!--entity 7--><g id="elem_7"><ellipse cx="91.47" cy="300" fill="#F1F1F1" rx="8" ry="8" style="stroke:#181818;stroke-width:0.5;"/><text fill="#000000" font-family="sans-serif" font-size="14" lengthAdjust="spacing" textLength="8.008" x="87.466" y="331.9659">7</text></g><!--entity 3--><g id="elem_3"><ellipse cx="53.47" cy="443" fill="#F1F1F1" rx="8" ry="8" style="stroke:#181818;stroke-width:0.5;"/><text fill="#000000" font-family="sans-serif" font-size="14" lengthAdjust="spacing" textLength="8.008" x="49.466" y="474.9659">3</text></g><!--entity A--><g id="elem_A"><rect fill="#F1F1F1" height="39.0679" rx="2.5" ry="2.5" style="stroke:#181818;stroke-width:0.5;" width="28.946" x="7" y="554"/><text fill="#000000" font-family="sans-serif" font-size="14" lengthAdjust="spacing" textLength="8.946" x="17" y="578.9659">A</text></g><!--entity B--><g id="elem_B"><rect fill="#F1F1F1" height="39.0679" rx="2.5" ry="2.5" style="stroke:#181818;stroke-width:0.5;" width="29.1" x="70.92" y="554"/><text fill="#000000" font-family="sans-serif" font-size="14" lengthAdjust="spacing" textLength="9.1" x="80.92" y="578.9659">B</text></g><!--entity C--><g id="elem_C"><rect fill="#F1F1F1" height="39.0679" rx="2.5" ry="2.5" style="stroke:#181818;stroke-width:0.5;" width="28.848" x="115.05" y="423.47"/><text fill="#000000" font-family="sans-serif" font-size="14" lengthAdjust="spacing" textLength="8.848" x="125.05" y="448.4359">C</text></g><!--entity D--><g id="elem_D"><rect fill="#F1F1F1" height="39.0679" rx="2.5" ry="2.5" style="stroke:#181818;stroke-width:0.5;" width="30.22" x="153.36" y="280.47"/><text fill="#000000" font-family="sans-serif" font-size="14" lengthAdjust="spacing" textLength="10.22" x="163.36" y="305.4359">D</text></g><!--entity E--><g id="elem_E"><rect fill="#F1F1F1" height="39.0679" rx="2.5" ry="2.5" style="stroke:#181818;stroke-width:0.5;" width="27.784" x="191.58" y="137.47"/><text fill="#000000" font-family="sans-serif" font-size="14" lengthAdjust="spacing" textLength="7.784" x="201.58" y="162.4359">E</text></g><!--link 32 to E--><g id="link_32_E"><path d="M169.62,22.99 C175.5,44.78 191.92,105.71 200.34,136.97 " fill="none" id="32-E" style="stroke:#181818;stroke-width:1;"/><text fill="#000000" font-family="sans-serif" font-size="13" lengthAdjust="spacing" textLength="7.436" x="189.75" y="90.897">1</text></g><!--link 32 to 15--><g id="link_32_15"><path d="M165.32,22.99 C158.63,47.8 138.26,123.41 131.6,148.1 " fill="none" id="32-15" style="stroke:#181818;stroke-width:1;"/><text fill="#000000" font-family="sans-serif" font-size="13" lengthAdjust="spacing" textLength="7.436" x="151.75" y="90.897">0</text></g><!--link 15 to 7--><g id="link_15_7"><path d="M127.32,165.99 C120.63,190.8 100.26,266.41 93.6,291.1 " fill="none" id="15-7" style="stroke:#181818;stroke-width:1;"/><text fill="#000000" font-family="sans-serif" font-size="13" lengthAdjust="spacing" textLength="7.436" x="113.75" y="233.897">0</text></g><!--link 15 to D--><g id="link_15_D"><path d="M131.68,165.99 C137.71,187.78 154.56,248.71 163.21,279.97 " fill="none" id="15-D" style="stroke:#181818;stroke-width:1;"/><text fill="#000000" font-family="sans-serif" font-size="13" lengthAdjust="spacing" textLength="7.436" x="152.31" y="233.897">1</text></g><!--link 7 to 3--><g id="link_7_3"><path d="M89.32,308.99 C82.63,333.8 62.26,409.41 55.6,434.1 " fill="none" id="7-3" style="stroke:#181818;stroke-width:1;"/><text fill="#000000" font-family="sans-serif" font-size="13" lengthAdjust="spacing" textLength="7.436" x="75.75" y="376.897">0</text></g><!--link 7 to C--><g id="link_7_C"><path d="M93.62,308.99 C99.5,330.78 115.92,391.71 124.34,422.97 " fill="none" id="7-C" style="stroke:#181818;stroke-width:1;"/><text fill="#000000" font-family="sans-serif" font-size="13" lengthAdjust="spacing" textLength="7.436" x="113.75" y="376.897">1</text></g><!--link 3 to A--><g id="link_3_A"><path d="M50.52,451.79 C46.27,463.29 38.36,485.55 33.47,505 C29.38,521.29 26.15,540.12 24.08,553.75 " fill="none" id="3-A" style="stroke:#181818;stroke-width:1;"/><text fill="#000000" font-family="sans-serif" font-size="13" lengthAdjust="spacing" textLength="7.436" x="34.47" y="519.897">0</text></g><!--link 3 to B--><g id="link_3_B"><path d="M55.38,451.66 C60.33,471.55 73.71,525.29 80.85,553.95 " fill="none" id="3-B" style="stroke:#181818;stroke-width:1;"/><text fill="#000000" font-family="sans-serif" font-size="13" lengthAdjust="spacing" textLength="7.436" x="74.28" y="519.897">1</text></g><!--SRC=[JSfB2i0W34NHULQH3GZL888pVmif8gLGEf3kdnf5oEoyowjthqz3Cb2NjDro6mJGM_tEzneZ24VX99o52m0PL0gnUDJRsdey0BJbvTYBcJ_WcCHrAir8pC1nAexu0m00]--></g></svg>